<?xml version="1.0" standalone="no"?>
<!DOCTYPE svg PUBLIC "-//W3C//DTD SVG 20010904//EN"
 "http://www.w3.org/TR/2001/REC-SVG-20010904/DTD/svg10.dtd">
<svg version="1.0" xmlns="http://www.w3.org/2000/svg"
 width="1000.000000pt" height="1000.000000pt" viewBox="0 0 1000.000000 1000.000000"
 preserveAspectRatio="xMidYMid meet">

<g transform="translate(0.000000,1000.000000) scale(0.100000,-0.100000)"
fill="#000000" stroke="none">
<path d="M0 5000 l0 -5000 5000 0 5000 0 0 5000 0 5000 -5000 0 -5000 0 0
-5000z m5069 3120 c52 -40 73 -50 103 -50 l38 0 0 -75 c0 -84 -11 -117 -49
-142 -22 -15 -61 -19 -251 -24 -328 -9 -489 -48 -775 -189 -116 -57 -428 -235
-624 -357 -53 -32 -368 -321 -496 -454 -272 -282 -436 -572 -499 -884 -9 -44
-36 -259 -60 -479 -44 -394 -45 -399 -80 -472 -19 -41 -38 -89 -41 -107 -3
-17 8 -126 25 -241 16 -114 30 -216 30 -225 0 -12 -9 -16 -32 -16 -45 0 -58
-37 -32 -91 21 -44 47 -54 74 -29 17 15 20 10 65 -97 140 -336 143 -342 224
-438 82 -98 301 -318 521 -523 118 -111 275 -259 348 -330 131 -126 134 -128
170 -121 52 9 105 32 120 51 10 15 12 13 12 -14 0 -29 -40 -83 -62 -83 -43 0
134 -97 252 -138 113 -39 164 -49 365 -67 191 -18 406 -52 566 -91 l108 -25
93 20 c51 11 144 25 207 32 l114 13 53 45 c44 38 54 53 60 89 6 38 8 41 19 25
13 -17 14 -17 20 -1 4 10 2 32 -4 49 -18 51 -6 45 42 -19 44 -60 45 -60 56
-36 13 30 37 40 56 24 13 -11 15 -8 16 16 0 16 4 38 8 49 8 19 9 18 21 -7 17
-36 24 -35 49 7 20 34 23 36 71 33 46 -3 50 -5 50 -28 0 -25 16 -50 31 -50 4
0 28 18 55 40 l48 39 18 -29 c21 -35 56 -46 98 -32 83 29 729 488 1115 791
l90 70 5 -42 5 -42 18 58 c16 52 20 56 38 47 33 -18 57 -2 108 73 46 69 197
224 208 214 7 -7 -99 -260 -159 -380 -103 -206 -231 -401 -381 -581 -62 -75
-76 -98 -81 -135 -3 -26 -17 -59 -30 -76 -22 -27 -30 -30 -105 -36 -65 -4 -86
-10 -103 -27 -19 -18 -20 -25 -10 -47 l12 -25 -30 15 c-16 8 -40 15 -53 15
-27 0 -137 -36 -150 -49 -5 -5 7 -26 27 -49 40 -44 66 -98 66 -139 0 -26 -2
-24 -49 28 -48 53 -49 54 -77 39 -32 -17 -275 -262 -286 -288 -4 -9 -7 -41 -7
-69 l-1 -53 -73 0 c-93 0 -109 -14 -115 -100 -2 -33 -9 -60 -15 -60 -5 0 -36
27 -68 60 -31 33 -61 60 -66 60 -23 0 -198 -42 -232 -56 -34 -13 -39 -19 -37
-47 1 -30 -1 -32 -35 -35 -27 -2 -58 8 -124 42 -114 59 -177 73 -260 59 -53
-9 -75 -8 -141 8 -184 44 -453 49 -739 14 -66 -8 -126 -15 -132 -15 -9 0 -13
16 -13 45 0 42 -11 58 -25 35 -13 -20 -48 -8 -143 48 -53 32 -171 97 -262 144
-161 83 -167 85 -250 91 -97 6 -177 32 -247 82 -128 90 -123 88 -283 95 -137
6 -151 9 -214 38 -151 71 -247 222 -296 464 -6 31 -20 68 -31 83 -21 26 -73
58 -81 49 -3 -2 -27 57 -53 133 -49 142 -119 310 -295 708 -56 127 -108 255
-116 285 -8 30 -14 94 -14 143 0 87 1 89 22 84 35 -10 58 9 58 48 0 114 -86
382 -192 597 l-78 160 15 82 c8 44 26 158 40 251 51 334 102 510 190 650 59
94 125 168 284 316 160 149 223 222 247 286 53 148 56 152 268 360 222 220
348 333 397 359 28 14 52 15 158 10 69 -4 131 -3 137 1 7 4 22 30 34 56 35 74
102 142 178 179 59 29 76 33 152 33 51 0 94 6 108 14 13 7 62 48 109 92 57 53
93 79 109 79 23 0 24 -3 24 -65 l0 -65 70 46 c89 57 183 101 380 175 110 42
164 58 185 54 16 -3 58 -28 94 -55z m1176 -151 c179 -25 497 -153 678 -273
109 -73 216 -165 295 -252 41 -46 164 -232 368 -559 168 -269 310 -498 315
-507 19 -36 71 -493 76 -675 3 -101 9 -183 13 -183 11 0 36 24 59 58 12 17 31
37 41 42 17 9 17 5 -5 -60 -44 -130 -95 -417 -95 -536 0 -67 -16 -44 -24 33
-6 61 2 183 20 328 l7 50 -26 -24 c-15 -14 -32 -21 -42 -18 -18 8 -35 48 -35
86 0 21 -12 38 -49 69 -65 55 -141 157 -195 262 -43 85 -43 85 -29 130 20 64
12 183 -15 237 -13 25 -49 64 -89 96 -92 73 -98 82 -139 178 -46 109 -74 218
-74 290 l0 58 -62 -29 c-106 -50 -105 -51 -353 127 -491 349 -637 448 -840
565 -72 42 -90 48 -178 58 -290 34 -482 199 -392 336 8 13 28 30 43 38 33 17
171 25 218 13 26 -7 32 -4 45 19 24 45 59 53 231 54 86 0 191 -5 233 -11z
m-464 -1697 c105 -28 186 -71 257 -137 112 -103 167 -228 179 -399 11 -179
-38 -330 -139 -421 -43 -39 -151 -99 -238 -132 -23 -9 -19 -13 60 -53 235
-123 300 -290 300 -777 l0 -193 -139 0 -139 0 -4 253 c-4 229 -6 258 -26 315
-41 116 -106 193 -206 244 -81 41 -170 58 -313 58 l-123 0 0 135 0 135 153 0
c225 1 342 34 424 119 107 111 139 303 73 431 -48 92 -163 163 -291 180 -205
25 -377 -52 -440 -198 -47 -108 -49 -147 -49 -933 l0 -739 -146 0 -145 0 4
763 c4 821 4 817 59 968 77 211 236 348 458 395 95 20 332 12 431 -14z m-2357
-171 c15 -402 104 -641 299 -803 89 -74 99 -77 144 -42 57 43 129 119 172 182
117 173 167 360 178 665 l6 167 140 0 140 0 -6 -187 c-8 -282 -45 -445 -151
-668 -83 -174 -198 -313 -333 -403 l-53 -35 0 -408 0 -409 -140 0 -140 0 0
408 -1 407 -60 40 c-75 50 -201 179 -257 265 -88 133 -162 316 -196 485 -19
91 -35 289 -36 418 l0 87 143 0 144 0 7 -169z m3446 -886 l0 -1055 -145 0
-145 0 0 1055 0 1055 145 0 145 0 0 -1055z m-2800 -1383 c0 -5 6 -17 14 -28
14 -18 15 -18 25 9 6 15 17 27 26 27 19 0 19 -3 -5 -50 -11 -22 -20 -51 -20
-65 0 -16 -6 -25 -15 -25 -9 0 -15 9 -15 25 0 14 -9 43 -20 65 -24 47 -24 50
-5 50 8 0 15 -4 15 -8z m224 -14 c49 -70 -32 -151 -102 -102 -27 19 -30 78 -5
106 24 27 87 24 107 -4z m76 -32 c0 -37 4 -56 14 -59 23 -9 36 15 36 65 0 36
4 48 15 48 22 0 21 -97 -2 -122 -18 -20 -63 -24 -81 -6 -7 7 -12 38 -12 70 0
45 3 58 15 58 11 0 15 -13 15 -54z m200 45 c0 -5 -9 -11 -20 -14 -17 -4 -20
-14 -20 -61 0 -31 -4 -56 -10 -56 -5 0 -10 25 -10 56 0 47 -3 57 -20 61 -37
10 -20 23 30 23 28 0 50 -4 50 -9z m50 -16 c0 -20 5 -25 25 -25 20 0 25 5 25
25 0 16 6 25 15 25 12 0 15 -14 15 -70 0 -56 -3 -70 -15 -70 -10 0 -15 10 -15
30 0 25 -4 30 -25 30 -21 0 -25 -5 -25 -30 0 -20 -5 -30 -15 -30 -12 0 -15 14
-15 70 0 56 3 70 15 70 9 0 15 -9 15 -25z m275 -35 c1 -30 4 -61 9 -68 4 -7 2
-12 -8 -12 -9 0 -23 15 -33 33 l-18 32 -3 -32 c-2 -21 -9 -33 -18 -33 -11 0
-14 16 -14 71 l0 70 43 -3 42 -3 0 -55z m115 51 c0 -5 -10 -11 -22 -13 -28 -4
-36 -28 -9 -28 12 0 21 -6 21 -15 0 -8 -9 -15 -20 -15 -11 0 -20 -7 -20 -15 0
-10 10 -15 30 -15 20 0 30 -5 30 -15 0 -11 -11 -15 -40 -15 l-40 0 0 70 0 70
35 0 c19 0 35 -4 35 -9z m120 -6 c0 -11 -8 -13 -30 -8 -43 8 -40 -21 3 -33 24
-7 33 -16 35 -35 2 -14 -4 -31 -12 -38 -22 -18 -80 -10 -84 12 -3 15 0 16 24
7 21 -9 31 -8 43 4 13 14 12 16 -5 21 -50 16 -64 26 -64 43 0 27 20 42 57 42
22 0 33 -5 33 -15z m120 5 c0 -5 -11 -10 -25 -10 -16 0 -25 -6 -25 -15 0 -8 9
-15 20 -15 11 0 20 -7 20 -15 0 -8 -9 -15 -20 -15 -11 0 -20 -7 -20 -15 0 -9
9 -15 25 -15 16 0 25 -6 25 -15 0 -11 -11 -15 -40 -15 l-40 0 0 70 0 70 40 0
c22 0 40 -4 40 -10z m111 -45 c31 -81 32 -85 16 -85 -8 0 -17 7 -21 15 -7 20
-46 19 -61 -1 -6 -9 -16 -15 -22 -13 -7 3 -1 29 14 72 31 81 47 84 74 12z
m137 27 c2 -13 -2 -29 -8 -37 -9 -10 -7 -21 5 -44 14 -27 14 -31 1 -31 -9 0
-23 15 -33 33 l-18 32 -3 -32 c-2 -21 -9 -33 -18 -33 -11 0 -14 16 -14 71 l0
70 43 -3 c35 -3 43 -7 45 -26z m132 12 c0 -8 -5 -12 -11 -9 -20 13 -59 -5 -65
-30 -8 -33 11 -55 48 -55 19 0 28 -4 26 -12 -6 -16 -32 -22 -63 -14 -44 11
-57 102 -16 126 27 16 81 12 81 -6z m60 -9 c0 -20 5 -25 25 -25 20 0 25 5 25
25 0 16 6 25 15 25 12 0 15 -14 15 -70 0 -56 -3 -70 -15 -70 -10 0 -15 10 -15
30 0 25 -4 30 -25 30 -21 0 -25 -5 -25 -30 0 -20 -5 -30 -15 -30 -12 0 -15 14
-15 70 0 56 3 70 15 70 9 0 15 -9 15 -25z m220 -45 c0 -56 -3 -70 -15 -70 -12
0 -15 14 -15 70 0 56 3 70 15 70 12 0 15 -14 15 -70z m92 27 l28 -42 0 43 c0
31 4 42 15 42 12 0 15 -14 15 -70 0 -83 -12 -90 -52 -27 l-28 42 0 -42 c0 -32
-4 -43 -15 -43 -12 0 -15 14 -15 70 0 83 12 90 52 27z m128 -27 c0 -56 -3 -70
-15 -70 -12 0 -15 14 -15 70 0 56 3 70 15 70 12 0 15 -14 15 -70z m120 60 c0
-5 -7 -10 -15 -10 -12 0 -15 -13 -15 -60 0 -47 -3 -60 -15 -60 -12 0 -15 13
-15 60 0 53 -2 60 -20 60 -11 0 -20 5 -20 10 0 6 23 10 50 10 28 0 50 -4 50
-10z m60 -60 c0 -56 -3 -70 -15 -70 -12 0 -15 14 -15 70 0 56 3 70 15 70 12 0
15 -14 15 -70z m105 53 c4 -10 15 -42 25 -70 16 -45 17 -53 4 -53 -8 0 -17 7
-20 15 -4 8 -17 15 -30 15 -14 0 -27 -7 -30 -15 -4 -8 -12 -15 -20 -15 -12 0
-5 30 31 128 7 18 32 15 40 -5z m145 7 c0 -5 -7 -10 -15 -10 -12 0 -15 -13
-15 -60 0 -47 -3 -60 -15 -60 -12 0 -15 13 -15 60 0 53 -2 60 -20 60 -11 0
-20 5 -20 10 0 6 23 10 50 10 28 0 50 -4 50 -10z m60 -60 c0 -56 -3 -70 -15
-70 -12 0 -15 14 -15 70 0 56 3 70 15 70 12 0 15 -14 15 -70z m71 23 l13 -48
15 48 c8 27 20 47 29 47 8 0 12 -6 9 -12 -2 -7 -13 -39 -23 -70 -10 -32 -23
-58 -29 -58 -6 0 -21 28 -33 63 -26 73 -26 77 -8 77 8 0 19 -20 27 -47z m169
38 c0 -5 -10 -11 -22 -13 -28 -4 -36 -28 -9 -28 12 0 21 -6 21 -15 0 -8 -9
-15 -20 -15 -29 0 -25 -28 5 -32 38 -5 31 -23 -10 -26 l-35 -3 0 70 0 71 35 0
c19 0 35 -4 35 -9z"/>
<path d="M2405 4090 c14 -27 25 -61 25 -75 0 -36 24 -79 55 -99 28 -19 45 -15
28 6 -6 7 -27 51 -47 97 -35 82 -60 121 -78 121 -4 0 3 -22 17 -50z"/>
<path d="M2297 4123 c-15 -14 -4 -40 33 -83 l40 -45 -22 68 c-20 62 -34 78
-51 60z"/>
<path d="M4211 3806 c-7 -8 -11 -27 -9 -43 3 -25 7 -28 38 -28 31 0 35 3 38
28 4 32 -13 57 -38 57 -10 0 -23 -6 -29 -14z"/>
<path d="M4840 3800 c0 -15 5 -20 18 -18 9 2 17 10 17 18 0 8 -8 16 -17 18
-13 2 -18 -3 -18 -18z"/>
<path d="M5317 3781 c-3 -14 0 -21 9 -21 16 0 18 9 5 28 -6 10 -10 9 -14 -7z"/>
<path d="M5440 3800 c0 -15 5 -20 18 -18 9 2 17 10 17 18 0 8 -8 16 -17 18
-13 2 -18 -3 -18 -18z"/>
<path d="M6387 3785 c-8 -20 -4 -29 11 -24 5 2 6 13 2 23 -6 19 -7 19 -13 1z"/>
</g>
</svg>
